<?xml version="1.0" encoding="utf-8"?>
<!-- Generator: Adobe Illustrator 14.0.0, SVG Export Plug-In . SVG Version: 6.00 Build 43363)  -->
<!DOCTYPE svg PUBLIC "-//W3C//DTD SVG 1.1//EN" "http://www.w3.org/Graphics/SVG/1.1/DTD/svg11.dtd">
<svg version="1.1" id="Layer_1" xmlns="http://www.w3.org/2000/svg" xmlns:xlink="http://www.w3.org/1999/xlink" x="0px" y="0px"
	 width="245px" height="243px" viewBox="197.5 117.5 245 243" style="enable-background:new 197.5 117.5 245 243;"
	 xml:space="preserve">
<style type="text/css">
<![CDATA[
	.st0{fill:#FF0000;}
]]>
</style>
<g>
	<path class="st0" d="M404.2,203.9c-1,0.1-1.8,0.1-2.7,0.1c-5.5,0-10.9,0-16.4,0c-4.2,0.1-8.3,2.9-8.5,6.7
		c-0.3,6.8-0.1,13.5-0.1,20.8c9.4,0,18.5,0,28.1,0c-1.2,10.3-2.3,20-3.4,29.8c-8.4,0.4-16.6,0.8-24.7,1.1c0,29.9,0,59.5,0,89.2
		c6,0,11.8,0.1,17.6-0.1c3.4-0.1,6.9-0.1,10.1-0.8c15.5-3.7,26.7-18.6,26.7-35.1c0-50.5,0-101.1,0-151.6c0-19.6-14.2-33.8-33.7-33.8
		c-50.4,0-100.7,0-151,0.1c-3,0-6.1,0.4-9,1c-15.3,3.4-27.8,16.6-27.7,34.5c0.4,49.5,0.1,98.9,0.2,148.4c0,2.2,0.2,4.5,0.5,6.7
		c2.7,16.9,19,30.8,36.1,30.8c30,0,60,0,90,0c1,0,2.1,0,3.1,0c0-29.9,0-59.5,0-89.6c-5.9,0-11.6,0-17.5,0c0-10.3,0-20.2,0-30.4
		c6,0,11.7,0,17.7,0c0-1.3,0-2.3,0-3.3c0-8.3-0.3-16.7,0.2-25c0.6-11.5,5.4-20.9,16.1-26c4.7-2.2,10-3.7,15.2-4
		c10.4-0.7,21-0.4,31.4-0.5c0.5,0,1,0.1,1.7,0.2C404.2,183.4,404.2,193.5,404.2,203.9z"/>
	<path class="st0" d="M404.2,203.9c0-10.3,0-20.5,0-30.7c-0.7-0.1-1.2-0.2-1.7-0.2c-10.5,0.1-21-0.2-31.4,0.5
		c-5.2,0.3-10.5,1.8-15.2,4c-10.8,5.1-15.5,14.5-16.1,26c-0.4,8.3-0.1,16.7-0.2,25c0,1,0,1.9,0,3.3c-5.9,0-11.7,0-17.7,0
		c0,10.2,0,20.1,0,30.4c5.9,0,11.6,0,17.5,0c0,30,0,59.6,0,89.6c-1,0-2,0-3.1,0c-30,0-60,0-90,0c-17,0-33.3-13.9-36.1-30.8
		c-0.4-2.2-0.5-4.5-0.5-6.7c-0.1-49.5,0.2-98.9-0.2-148.4c-0.2-17.9,12.4-31.1,27.7-34.5c3-0.6,6-1,9-1c50.4-0.1,100.7-0.1,151-0.1
		c19.5,0,33.7,14.2,33.7,33.8c0,50.5,0,101.1,0,151.6c0,16.6-11.3,31.4-26.7,35.1c-3.3,0.8-6.7,0.8-10.1,0.8
		c-5.8,0.1-11.6,0.1-17.6,0.1c0-29.7,0-59.3,0-89.2c8.1-0.4,16.2-0.7,24.7-1.1c1.1-9.8,2.3-19.6,3.4-29.8c-9.6,0-18.8,0-28.1,0
		c0-7.3-0.2-14,0.1-20.8c0.2-3.8,4.2-6.7,8.5-6.7c5.5-0.1,10.9,0,16.4,0C402.4,204,403.3,204,404.2,203.9z"/>
</g>
</svg>
