<?xml version="1.0" encoding="utf-8"?>
<!-- Generator: Adobe Illustrator 14.0.0, SVG Export Plug-In . SVG Version: 6.00 Build 43363)  -->
<!DOCTYPE svg PUBLIC "-//W3C//DTD SVG 1.1//EN" "http://www.w3.org/Graphics/SVG/1.1/DTD/svg11.dtd">
<svg version="1.1" id="Layer_1" xmlns="http://www.w3.org/2000/svg" xmlns:xlink="http://www.w3.org/1999/xlink" x="0px" y="0px"
	 width="108.8px" height="34px" viewBox="0 0 108.8 34" style="enable-background:new 0 0 108.8 34;" xml:space="preserve">
<style type="text/css">
<![CDATA[
	.st0{fill:#FF0000;}
]]>
</style>
<path class="st0" d="M26.8,20.8L26.8,20.8l3.1-19.3h8.6l-6.7,31.3H23l-3.1-18.2h-0.1l-3.1,18.2H8L1.2,1.5h8.6l3.1,19.3H13l3.2-19.3
	h7.3L26.8,20.8z"/>
<path class="st0" d="M43.2,32.8V1.5H54L58.8,21l4.8-19.5h10.7v31.3h-8v-9.6l0.1-4.9l0.5-5.7h-0.1l-4.9,20.1h-6.2l-4.9-20.1h-0.1
	l0.4,4.6l0.2,4.9v10.6H43.2z"/>
<path class="st0" d="M81.1,32.8V1.5H90v10.6h8.4V1.5h8.9v31.3h-8.9V20.7H90v12.1H81.1z"/>
</svg>
