<?xml version="1.0" encoding="utf-8"?>
<!-- Generator: Adobe Illustrator 14.0.0, SVG Export Plug-In . SVG Version: 6.00 Build 43363)  -->
<!DOCTYPE svg PUBLIC "-//W3C//DTD SVG 1.1//EN" "http://www.w3.org/Graphics/SVG/1.1/DTD/svg11.dtd">
<svg version="1.1" id="Layer_1" xmlns="http://www.w3.org/2000/svg" xmlns:xlink="http://www.w3.org/1999/xlink" x="0px" y="0px"
	 width="439.5px" height="52.5px" viewBox="0 0 439.5 52.5" enable-background="new 0 0 439.5 52.5" xml:space="preserve">
<g>
	<path fill="#ED2224" d="M46.795,11.157l-0.323,1.29c-0.322,0-0.726,0.081-1.128,0.242c-0.484,0.162-0.887,0.323-1.291,0.564
		c-0.483,0.323-0.967,0.646-1.29,1.048c-0.322,0.403-0.726,0.887-1.048,1.532c-1.291,2.419-3.064,5.725-5.322,9.998
		c-2.258,4.273-4.516,8.547-6.935,12.901h-1.693l-2.257-20.883L13.656,38.732h-1.693c-0.322-5.805-0.564-10.643-0.726-14.594
		c-0.242-3.951-0.322-6.935-0.484-8.95c0-0.403-0.081-0.726-0.242-1.048c-0.161-0.323-0.403-0.564-0.726-0.887
		c-0.242-0.242-0.645-0.403-1.048-0.483c-0.403-0.081-0.806-0.162-1.129-0.162l0.323-1.29h10.885l-0.323,1.29
		c-1.532,0.081-2.5,0.242-3.064,0.484c-0.484,0.242-0.806,0.484-0.806,0.887c0,0.242,0,0.645,0,1.128c0,0.484,0,0.968,0.081,1.532
		c0,0.887,0.161,2.661,0.242,5.322c0.161,2.661,0.323,6.047,0.564,10.079l11.369-20.238h1.774l2.258,20.722
		c1.612-3.063,2.983-5.724,4.193-8.062s2.257-4.516,3.145-6.37c0.564-1.128,0.967-2.016,1.209-2.661
		c0.242-0.564,0.322-1.048,0.322-1.29c0-0.403-0.322-0.726-0.887-0.968c-0.564-0.242-1.452-0.403-2.5-0.484l0.322-1.29h10.079
		V11.157z"/>
	<path fill="#ED2224" d="M52.923,36.152l-0.322,1.209c-1.209,0.484-2.097,0.807-2.822,0.969c-0.726,0.16-1.29,0.241-1.774,0.241
		c-1.048,0-1.774-0.241-2.258-0.806s-0.726-1.21-0.726-1.936c0-0.322,0-0.564,0.081-0.887s0.161-0.727,0.242-1.21l2.016-8.144
		c0.081-0.484,0.161-0.887,0.322-1.451c0.081-0.484,0.162-0.968,0.162-1.291c0-0.726-0.081-1.209-0.323-1.451
		c-0.242-0.242-0.726-0.323-1.451-0.323c-0.242,0-0.645,0.081-1.129,0.162s-0.806,0.161-1.048,0.242l0.323-1.209
		c0.967-0.484,1.854-0.806,2.661-0.968c0.806-0.242,1.451-0.322,1.854-0.322c1.048,0,1.774,0.242,2.258,0.726
		s0.726,1.129,0.726,2.016c0,0.242,0,0.564-0.081,0.967s-0.161,0.806-0.242,1.209l-2.016,8.144
		c-0.161,0.483-0.242,0.967-0.322,1.452c-0.081,0.483-0.162,0.887-0.162,1.209c0,0.726,0.162,1.209,0.484,1.451
		c0.323,0.242,0.887,0.403,1.532,0.403c0.242,0,0.564,0,1.048-0.081C52.439,36.395,52.682,36.233,52.923,36.152z M54.294,11.721
		c0,0.726-0.242,1.371-0.726,1.935s-1.048,0.806-1.774,0.806c-0.645,0-1.209-0.242-1.693-0.806
		c-0.483-0.484-0.726-1.129-0.726-1.774c0-0.726,0.242-1.29,0.726-1.854c0.484-0.484,1.048-0.806,1.693-0.806
		c0.726,0,1.29,0.242,1.774,0.726C54.052,10.512,54.294,11.076,54.294,11.721z"/>
	<path fill="#ED2224" d="M65.502,8.979l-5.322,22.98c-0.081,0.484-0.242,0.968-0.322,1.452c-0.081,0.483-0.162,0.887-0.162,1.21
		c0,0.725,0.162,1.209,0.484,1.451c0.323,0.242,0.887,0.402,1.613,0.402c0.242,0,0.645,0,1.129-0.08
		c0.483-0.08,0.887-0.162,1.129-0.242l-0.323,1.209c-1.129,0.484-2.016,0.807-2.661,0.969c-0.645,0.16-1.291,0.322-2.097,0.322
		c-1.048,0-1.774-0.242-2.338-0.807s-0.806-1.209-0.806-1.936c0-0.322,0-0.564,0.081-0.887s0.161-0.726,0.242-1.209l4.677-20.158
		c0.081-0.403,0.161-0.645,0.161-0.806c0-0.162,0.081-0.323,0.081-0.564c0-0.484-0.081-0.806-0.242-1.048
		c-0.161-0.242-0.403-0.403-0.645-0.564c-0.242-0.081-0.645-0.161-1.048-0.242c-0.403-0.081-0.806-0.081-1.209-0.162l0.242-1.128
		l7.096-0.403L65.502,8.979z"/>
	<path fill="#ED2224" d="M76.629,8.979l-5.321,22.98c-0.081,0.484-0.242,0.968-0.323,1.452s-0.161,0.887-0.161,1.21
		c0,0.725,0.161,1.209,0.484,1.451c0.322,0.242,0.887,0.402,1.612,0.402c0.242,0,0.645,0,1.129-0.08s0.887-0.162,1.129-0.242
		l-0.323,1.209c-1.128,0.484-2.016,0.807-2.661,0.969c-0.645,0.16-1.29,0.322-2.096,0.322c-1.048,0-1.774-0.242-2.338-0.807
		s-0.807-1.209-0.807-1.936c0-0.322,0-0.564,0.081-0.887c0.081-0.322,0.162-0.726,0.242-1.209l4.677-20.158
		c0.081-0.403,0.161-0.645,0.161-0.806c0-0.162,0.081-0.323,0.081-0.564c0-0.484-0.081-0.806-0.242-1.048
		c-0.162-0.242-0.403-0.403-0.645-0.564c-0.242-0.081-0.646-0.161-1.048-0.242c-0.403-0.081-0.807-0.081-1.209-0.162l0.242-1.128
		l7.096-0.403L76.629,8.979z"/>
	<path fill="#ED2224" d="M86.144,36.152l-0.322,1.209c-1.209,0.484-2.097,0.807-2.822,0.969c-0.726,0.16-1.29,0.241-1.774,0.241
		c-1.048,0-1.774-0.241-2.258-0.806s-0.726-1.21-0.726-1.936c0-0.322,0-0.564,0.081-0.887s0.161-0.727,0.242-1.21l2.016-8.144
		c0.081-0.484,0.161-0.887,0.322-1.451c0.081-0.484,0.162-0.968,0.162-1.291c0-0.726-0.081-1.209-0.323-1.451
		c-0.242-0.242-0.726-0.323-1.451-0.323c-0.242,0-0.645,0.081-1.129,0.162s-0.806,0.161-1.048,0.242l0.323-1.209
		c0.967-0.484,1.854-0.806,2.661-0.968c0.806-0.242,1.452-0.322,1.854-0.322c1.048,0,1.774,0.242,2.258,0.726
		s0.726,1.129,0.726,2.016c0,0.242,0,0.564-0.081,0.967s-0.161,0.806-0.242,1.209l-2.016,8.144
		c-0.161,0.483-0.242,0.967-0.322,1.452c-0.081,0.483-0.162,0.887-0.162,1.209c0,0.726,0.162,1.209,0.484,1.451
		c0.323,0.242,0.887,0.403,1.532,0.403c0.242,0,0.564,0,1.048-0.081C85.499,36.314,85.902,36.233,86.144,36.152z M87.434,11.721
		c0,0.726-0.242,1.371-0.726,1.935s-1.048,0.806-1.774,0.806c-0.645,0-1.209-0.242-1.693-0.806
		c-0.483-0.484-0.726-1.129-0.726-1.774c0-0.726,0.242-1.29,0.726-1.854c0.484-0.484,1.048-0.806,1.693-0.806
		c0.726,0,1.29,0.242,1.774,0.726C87.272,10.512,87.434,11.076,87.434,11.721z"/>
	<path fill="#ED2224" d="M100.012,35.75h-0.161c-0.242,0.241-0.645,0.483-0.968,0.887c-0.403,0.322-0.806,0.645-1.371,0.967
		c-0.484,0.322-1.048,0.564-1.613,0.807s-1.209,0.322-1.935,0.322c-1.854,0-3.306-0.645-4.354-2.016
		c-1.048-1.29-1.613-3.145-1.613-5.402c0-1.612,0.323-3.145,0.887-4.596c0.564-1.452,1.371-2.822,2.419-4.032
		c0.967-1.129,2.177-2.016,3.467-2.742c1.371-0.726,2.741-1.048,4.192-1.048c0.887,0,1.774,0.161,2.581,0.403
		c0.806,0.242,1.451,0.484,1.935,0.807l3.467-0.887l0.242,0.323l-2.903,12.336c-0.081,0.403-0.242,0.887-0.322,1.451
		s-0.162,0.968-0.162,1.291c0,0.725,0.162,1.209,0.484,1.451c0.323,0.241,0.807,0.402,1.532,0.402c0.242,0,0.564,0,1.048-0.08
		c0.483-0.081,0.806-0.162,1.048-0.242l-0.322,1.209c-1.129,0.484-2.016,0.807-2.581,0.969c-0.564,0.241-1.209,0.322-2.016,0.322
		c-0.887,0-1.613-0.242-2.177-0.807C100.335,37.201,100.093,36.556,100.012,35.75z M102.754,23.655c0-0.403-0.081-0.807-0.162-1.209
		c-0.081-0.403-0.242-0.726-0.564-1.048c-0.242-0.323-0.645-0.564-1.048-0.726c-0.484-0.162-0.968-0.323-1.693-0.323
		c-0.968,0-1.854,0.323-2.742,0.887c-0.887,0.645-1.693,1.451-2.338,2.5c-0.646,0.968-1.209,2.177-1.613,3.548
		c-0.403,1.371-0.645,2.741-0.645,4.193c0,0.806,0.081,1.452,0.161,2.096c0.081,0.564,0.242,1.129,0.484,1.613
		c0.242,0.483,0.564,0.887,1.048,1.129c0.483,0.241,1.048,0.402,1.774,0.402c0.726,0,1.451-0.161,2.257-0.564
		c0.807-0.402,1.693-1.129,2.661-2.096L102.754,23.655z"/>
	<path fill="#ED2224" d="M141.779,36.072l-0.322,1.209c-1.209,0.484-2.097,0.807-2.822,0.968s-1.29,0.241-1.774,0.241
		c-1.048,0-1.774-0.241-2.338-0.806c-0.484-0.564-0.726-1.21-0.726-1.935c0-0.242,0-0.564,0.081-0.969
		c0.081-0.322,0.162-0.725,0.242-1.209l1.854-7.096c0.161-0.564,0.242-1.048,0.322-1.451c0.081-0.484,0.162-0.806,0.162-1.048
		c0-0.887-0.162-1.532-0.564-2.016c-0.403-0.484-0.968-0.726-1.774-0.726c-0.887,0-1.693,0.161-2.5,0.564
		c-0.807,0.403-1.774,1.129-2.742,2.257l-3.387,14.191h-3.547l2.983-12.74c0.081-0.242,0.162-0.564,0.162-0.887
		c0.081-0.322,0.081-0.564,0.081-0.726c0-0.806-0.242-1.451-0.645-1.935c-0.403-0.484-1.048-0.726-1.774-0.726
		s-1.532,0.161-2.419,0.564c-0.887,0.403-1.854,1.209-3.064,2.419l-3.226,14.03h-3.547l2.902-12.417
		c0.081-0.483,0.162-0.887,0.323-1.451c0.081-0.484,0.161-0.968,0.161-1.29c0-0.726-0.081-1.209-0.403-1.452
		c-0.242-0.242-0.726-0.322-1.451-0.322c-0.242,0-0.645,0.081-1.048,0.161c-0.403,0.081-0.806,0.162-1.048,0.242l0.322-1.209
		c0.968-0.484,1.854-0.807,2.661-0.968c0.807-0.242,1.452-0.323,2.016-0.323c1.048,0,1.774,0.242,2.177,0.807
		c0.403,0.564,0.646,1.29,0.646,2.258h0.081c1.532-1.209,2.741-2.016,3.709-2.581c0.967-0.484,2.096-0.726,3.467-0.726
		c1.128,0,2.016,0.323,2.741,0.968s1.129,1.451,1.209,2.5h0.081c1.371-1.129,2.581-2.016,3.628-2.58
		c1.048-0.564,2.258-0.887,3.709-0.887c1.209,0,2.177,0.323,2.822,1.048s0.968,1.612,0.968,2.822c0,0.242,0,0.645-0.081,1.209
		c-0.081,0.564-0.162,1.129-0.323,1.774l-1.613,6.128c-0.081,0.403-0.242,0.887-0.322,1.37c-0.081,0.564-0.161,0.968-0.161,1.21
		c0,0.726,0.161,1.21,0.483,1.451c0.323,0.242,0.807,0.403,1.532,0.403c0.242,0,0.564,0,1.048-0.08
		C141.134,36.233,141.538,36.152,141.779,36.072z"/>
	<path fill="#ED2224" d="M150.246,38.813c-1.854,0-3.467-0.323-4.676-0.968c-1.291-0.645-1.855-1.531-1.855-2.66
		c0-0.484,0.162-0.969,0.564-1.452c0.403-0.483,0.807-0.646,1.371-0.646c0.483,0,0.887,0.081,1.209,0.323
		c0.322,0.241,0.564,0.483,0.726,0.806c0.161,0.323,0.322,0.727,0.484,1.21c0.161,0.483,0.242,0.807,0.403,1.129
		c0.162,0.241,0.484,0.403,0.807,0.564c0.322,0.161,0.806,0.241,1.451,0.241c1.371,0,2.419-0.322,3.145-1.047
		c0.726-0.727,1.048-1.613,1.048-2.822c0-0.888-0.323-1.532-0.968-2.097c-0.645-0.484-1.612-0.968-2.983-1.452
		c-0.484-0.161-1.048-0.403-1.693-0.726s-1.129-0.645-1.532-0.968c-0.484-0.403-0.806-0.887-1.129-1.451
		c-0.242-0.564-0.403-1.209-0.403-2.016c0-1.613,0.726-3.064,2.177-4.273c1.452-1.209,3.226-1.774,5.402-1.774
		c0.484,0,1.048,0,1.613,0.081s1.209,0.161,1.854,0.403c0.564,0.242,1.129,0.484,1.532,0.887c0.403,0.403,0.645,0.887,0.645,1.532
		c0,0.484-0.161,0.968-0.564,1.452c-0.323,0.403-0.807,0.645-1.371,0.645c-0.484,0-0.887-0.081-1.129-0.323
		c-0.322-0.242-0.564-0.484-0.726-0.806c-0.242-0.322-0.403-0.726-0.484-1.129c-0.161-0.403-0.242-0.806-0.403-1.129
		c-0.242-0.081-0.484-0.161-0.645-0.242c-0.162-0.081-0.484-0.081-0.726-0.081c-1.209,0-2.177,0.322-2.822,0.967
		s-0.968,1.452-0.968,2.419c0,0.887,0.323,1.532,0.887,2.016c0.564,0.483,1.532,0.887,2.903,1.371
		c1.693,0.645,2.983,1.371,3.79,2.177c0.806,0.806,1.209,1.774,1.209,2.983c0,1.935-0.726,3.548-2.258,4.757
		C154.358,38.249,152.503,38.813,150.246,38.813z"/>
	<path fill="#ED2224" d="M208.623,11.157l-0.323,1.29c-0.403,0-0.806,0.081-1.451,0.161c-0.564,0.081-0.968,0.162-1.29,0.323
		c-0.484,0.161-0.887,0.403-1.048,0.806c-0.242,0.323-0.403,0.726-0.484,1.129l-4.596,19.755c0,0.08-0.081,0.241-0.081,0.322
		c0,0.161,0,0.242,0,0.322c0,0.242,0.081,0.484,0.161,0.726s0.322,0.403,0.564,0.564c0.161,0.081,0.564,0.241,1.129,0.322
		s1.048,0.161,1.371,0.161l-0.323,1.291H190.32l0.322-1.291c0.484,0,1.048-0.08,1.693-0.161c0.726-0.081,1.209-0.161,1.451-0.322
		c0.484-0.241,0.807-0.483,1.048-0.806c0.242-0.323,0.484-0.727,0.564-1.129l4.677-20.159h-0.242l-14.755,23.463h-0.887
		l-3.387-23.947h-0.161l-3.871,16.69c-0.161,0.645-0.242,1.371-0.403,1.935c-0.081,0.646-0.162,1.129-0.162,1.532
		s0.081,0.807,0.162,1.049c0.081,0.322,0.242,0.564,0.403,0.725c0.242,0.242,0.726,0.484,1.452,0.727
		c0.726,0.241,1.29,0.322,1.774,0.402l-0.323,1.291H168.71l0.322-1.291c0.564-0.08,1.209-0.161,1.774-0.242
		c0.564-0.08,1.129-0.322,1.693-0.645c0.484-0.322,0.968-0.887,1.29-1.693c0.323-0.807,0.726-2.016,1.129-3.628l3.226-14.03
		c0.081-0.322,0.081-0.564,0.161-0.806c0-0.242,0.081-0.484,0.081-0.726c0-0.403-0.081-0.726-0.161-1.048
		c-0.081-0.242-0.242-0.484-0.403-0.726c-0.323-0.403-0.806-0.645-1.371-0.807c-0.564-0.161-1.048-0.242-1.532-0.242l0.323-1.29
		h9.192l2.983,20.4l10.562-17.094c0.403-0.645,0.726-1.29,1.129-2.016c0.323-0.726,0.484-1.129,0.564-1.29H208.623z"/>
	<path fill="#ED2224" d="M218.299,35.588h-0.081c-0.564,0.484-1.129,0.887-1.693,1.291c-0.564,0.402-1.048,0.725-1.613,0.967
		c-0.645,0.322-1.129,0.564-1.693,0.645c-0.484,0.162-1.129,0.162-1.936,0.162c-1.209,0-2.177-0.322-2.822-1.049
		c-0.645-0.725-1.048-1.612-1.048-2.741c0-0.322,0-0.646,0.081-1.048c0.081-0.403,0.161-1.049,0.323-1.854l1.451-6.048
		c0.161-0.564,0.242-1.048,0.323-1.451c0.081-0.403,0.161-0.806,0.161-1.209c0-0.726-0.081-1.209-0.323-1.451
		c-0.242-0.242-0.726-0.323-1.451-0.323c-0.242,0-0.645,0.081-1.048,0.161c-0.403,0.081-0.806,0.162-1.048,0.242l0.322-1.209
		c0.968-0.484,1.854-0.806,2.661-1.048c0.726-0.242,1.371-0.322,1.854-0.322c1.048,0,1.774,0.242,2.258,0.726
		s0.726,1.129,0.726,2.016c0,0.242,0,0.564-0.081,0.968s-0.161,0.806-0.242,1.209l-1.693,7.095
		c-0.161,0.564-0.242,1.048-0.323,1.532c-0.081,0.483-0.161,0.806-0.161,1.048c0,0.887,0.161,1.532,0.564,2.016
		c0.403,0.484,0.968,0.727,1.774,0.727s1.613-0.242,2.5-0.646c0.887-0.403,1.693-1.048,2.581-1.935l3.306-14.353l3.306-0.242
		l0.241,0.322l-2.822,12.337c-0.16,0.484-0.241,1.049-0.322,1.613c-0.08,0.563-0.161,0.887-0.161,1.128
		c0,0.726,0.161,1.21,0.483,1.452c0.323,0.241,0.807,0.402,1.533,0.402c0.241,0,0.564,0,1.048-0.08
		c0.483-0.081,0.806-0.162,1.048-0.242l-0.322,1.209c-1.049,0.404-1.936,0.727-2.661,0.969c-0.726,0.241-1.37,0.322-1.935,0.322
		c-1.048,0-1.774-0.322-2.338-0.887C218.541,37.039,218.299,36.395,218.299,35.588z"/>
	<path fill="#ED2224" d="M245.149,22.042c0,0.322-0.081,0.726-0.161,1.209c-0.081,0.403-0.242,0.806-0.403,1.048
		c-0.242,0.322-0.483,0.645-0.726,0.806s-0.646,0.242-1.21,0.242c-0.726,0-1.21-0.161-1.532-0.483
		c-0.322-0.323-0.483-0.726-0.483-1.129c0-0.403,0.081-0.807,0.323-1.29c0.16-0.484,0.402-0.968,0.563-1.452
		c-0.161,0-0.403,0.081-0.726,0.162c-0.322,0.081-0.807,0.242-1.29,0.483c-0.483,0.242-1.048,0.645-1.693,1.129
		s-1.29,1.129-2.016,1.935l-3.063,13.708h-3.549l2.822-12.417c0.081-0.323,0.162-0.726,0.242-1.371
		c0.161-0.645,0.161-1.048,0.161-1.371c0-0.726-0.161-1.209-0.403-1.451c-0.242-0.242-0.725-0.403-1.451-0.403
		c-0.242,0-0.645,0.081-1.048,0.161s-0.807,0.162-1.048,0.242l0.322-1.209c0.967-0.484,1.854-0.807,2.66-0.968
		c0.727-0.242,1.451-0.323,1.936-0.323c1.049,0,1.773,0.242,2.178,0.807c0.402,0.564,0.645,1.371,0.645,2.5h0.08
		c1.532-1.29,2.661-2.258,3.468-2.742c0.806-0.484,1.612-0.806,2.419-0.806c0.402,0,0.807,0.081,1.209,0.161
		c0.403,0.081,0.727,0.242,0.968,0.484c0.242,0.242,0.483,0.564,0.646,0.887C245.149,20.913,245.149,21.397,245.149,22.042z"/>
	<path fill="#ED2224" d="M263.049,22.042c0,0.322-0.08,0.726-0.16,1.209c-0.081,0.403-0.242,0.806-0.404,1.048
		c-0.241,0.322-0.483,0.645-0.725,0.806c-0.242,0.161-0.646,0.242-1.21,0.242c-0.726,0-1.21-0.161-1.532-0.483
		c-0.322-0.323-0.483-0.726-0.483-1.129c0-0.403,0.081-0.807,0.322-1.29c0.161-0.484,0.403-0.968,0.564-1.452
		c-0.161,0-0.403,0.081-0.726,0.162c-0.322,0.081-0.807,0.242-1.29,0.483c-0.483,0.242-1.048,0.645-1.693,1.129
		s-1.29,1.129-2.016,1.935l-3.063,13.708h-3.549l2.822-12.417c0.081-0.323,0.162-0.726,0.242-1.371
		c0.161-0.645,0.161-1.048,0.161-1.371c0-0.726-0.161-1.209-0.403-1.451c-0.242-0.242-0.726-0.403-1.451-0.403
		c-0.242,0-0.645,0.081-1.049,0.161c-0.402,0.081-0.806,0.162-1.047,0.242l0.322-1.209c0.967-0.484,1.854-0.807,2.66-0.968
		s1.451-0.323,1.936-0.323c1.048,0,1.773,0.242,2.177,0.807s0.646,1.371,0.646,2.5h0.08c1.532-1.29,2.661-2.258,3.467-2.742
		c0.807-0.484,1.613-0.806,2.42-0.806c0.402,0,0.807,0.081,1.209,0.161c0.403,0.081,0.726,0.242,0.968,0.484
		c0.241,0.242,0.483,0.564,0.646,0.887C262.969,20.913,263.049,21.397,263.049,22.042z"/>
	<path fill="#ED2224" d="M275.387,35.75h-0.082c-0.241,0.241-0.645,0.483-0.967,0.887c-0.403,0.322-0.807,0.645-1.371,0.967
		c-0.483,0.322-1.048,0.564-1.612,0.807s-1.21,0.322-1.935,0.322c-1.855,0-3.307-0.645-4.355-2.016
		c-1.047-1.29-1.611-3.145-1.611-5.402c0-1.612,0.322-3.145,0.887-4.596c0.564-1.452,1.371-2.822,2.418-4.032
		c0.969-1.129,2.178-2.016,3.468-2.742c1.37-0.726,2.741-1.048,4.192-1.048c0.887,0,1.774,0.161,2.58,0.403
		c0.807,0.242,1.452,0.484,1.936,0.807l3.467-0.887l0.242,0.323l-2.902,12.336c-0.08,0.403-0.242,0.887-0.322,1.451
		c-0.081,0.564-0.162,0.968-0.162,1.291c0,0.725,0.162,1.209,0.484,1.451c0.322,0.241,0.807,0.402,1.531,0.402
		c0.242,0,0.564,0,1.049-0.08c0.484-0.081,0.807-0.162,1.049-0.242l-0.323,1.209c-1.129,0.484-2.016,0.807-2.58,0.969
		c-0.564,0.241-1.21,0.322-2.016,0.322c-0.888,0-1.612-0.242-2.177-0.807C275.789,37.201,275.467,36.556,275.387,35.75z
		 M278.208,23.655c0-0.403-0.081-0.807-0.161-1.209c-0.08-0.403-0.242-0.726-0.564-1.048c-0.242-0.323-0.645-0.564-1.049-0.726
		c-0.483-0.162-0.967-0.323-1.692-0.323c-0.968,0-1.854,0.323-2.741,0.887c-0.888,0.645-1.693,1.451-2.339,2.5
		c-0.646,0.968-1.21,2.177-1.612,3.548c-0.403,1.371-0.646,2.741-0.646,4.193c0,0.806,0.081,1.452,0.161,2.096
		c0.081,0.564,0.242,1.129,0.484,1.613c0.242,0.483,0.564,0.887,1.048,1.129c0.483,0.241,1.048,0.402,1.774,0.402
		c0.725,0,1.451-0.161,2.258-0.564c0.806-0.402,1.693-1.129,2.66-2.096L278.208,23.655z"/>
	<path fill="#ED2224" d="M297.882,35.508h-0.08c-1.21,0.967-2.258,1.773-3.306,2.338c-1.049,0.564-2.258,0.807-3.629,0.807
		c-1.209,0-2.177-0.322-2.902-1.049c-0.727-0.725-1.049-1.612-1.049-2.741c0-0.322,0-0.646,0.081-1.048
		c0.081-0.403,0.161-1.049,0.322-1.854l1.452-5.967c0.16-0.564,0.241-1.048,0.322-1.532c0.08-0.403,0.08-0.806,0.08-1.209
		c0-0.726-0.08-1.209-0.322-1.451c-0.242-0.242-0.726-0.323-1.451-0.323c-0.242,0-0.646,0.081-1.049,0.161
		c-0.402,0.081-0.807,0.162-1.048,0.242l0.323-1.209c0.967-0.484,1.854-0.806,2.66-1.048c0.726-0.242,1.371-0.322,1.854-0.322
		c1.048,0,1.774,0.242,2.258,0.726s0.726,1.129,0.726,2.096c0,0.242,0,0.564-0.08,0.968c-0.081,0.403-0.162,0.806-0.242,1.209
		l-1.693,6.934c-0.162,0.564-0.242,1.048-0.322,1.532c-0.081,0.484-0.162,0.807-0.162,1.049c0,0.887,0.242,1.531,0.646,2.016
		s1.048,0.726,1.854,0.726c0.968,0,1.854-0.241,2.741-0.726c0.888-0.484,1.693-1.049,2.5-1.854l3.145-14.272l3.306-0.242
		l0.242,0.322l-3.306,14.917c-0.484,2.178-1.129,4.031-1.854,5.645c-0.727,1.531-1.613,2.822-2.661,3.789
		c-1.048,0.968-2.177,1.693-3.387,2.178c-1.21,0.483-2.58,0.645-4.192,0.645c-1.049,0-1.936-0.08-2.58-0.242
		c-0.646-0.16-1.129-0.322-1.533-0.645c-0.402-0.242-0.645-0.564-0.725-0.887c-0.162-0.322-0.162-0.646-0.162-0.968
		c0-0.564,0.162-1.048,0.484-1.451s0.807-0.646,1.451-0.646c0.484,0,0.887,0.162,1.209,0.403c0.323,0.242,0.564,0.564,0.807,0.888
		c0.242,0.322,0.403,0.725,0.645,1.128c0.162,0.403,0.323,0.807,0.484,1.048h0.484c0.725,0,1.531-0.16,2.338-0.564
		c0.807-0.322,1.531-0.887,2.258-1.693c0.726-0.806,1.371-1.854,1.936-3.145C297.076,38.813,297.56,37.281,297.882,35.508z"/>
	<path fill="#ED2224" d="M349.325,11.157l-0.322,1.29c-0.323,0-0.807,0.081-1.371,0.161s-0.968,0.162-1.209,0.323
		c-0.484,0.161-0.888,0.403-1.049,0.806c-0.241,0.323-0.403,0.726-0.483,1.129l-4.516,19.755c0,0.08-0.08,0.241-0.08,0.322
		c0,0.161,0,0.242,0,0.322c0,0.242,0.08,0.484,0.161,0.726c0.08,0.241,0.322,0.403,0.564,0.564c0.161,0.081,0.564,0.241,1.048,0.322
		s0.968,0.161,1.29,0.161l-0.322,1.291h-11.289l0.323-1.291c0.322,0,0.806-0.08,1.37-0.08c0.564-0.081,0.968-0.162,1.21-0.242
		c0.483-0.161,0.807-0.402,1.048-0.726c0.242-0.322,0.403-0.726,0.484-1.21l2.257-9.756H325.7l-2.177,9.596
		c0,0.08-0.081,0.241-0.081,0.322c0,0.08,0,0.242,0,0.322c0,0.242,0.081,0.484,0.161,0.726c0.081,0.241,0.322,0.403,0.564,0.564
		c0.161,0.081,0.564,0.241,1.049,0.322c0.483,0.081,0.967,0.161,1.29,0.161l-0.323,1.291h-11.288l0.322-1.291
		c0.323,0,0.807-0.08,1.371-0.08c0.564-0.081,0.968-0.162,1.209-0.242c0.484-0.161,0.807-0.402,1.049-0.726
		c0.241-0.322,0.403-0.726,0.483-1.21l4.596-19.754c0-0.081,0.081-0.242,0.081-0.322s0-0.242,0-0.323
		c0-0.242-0.081-0.483-0.161-0.726c-0.081-0.242-0.322-0.403-0.564-0.564c-0.322-0.161-0.726-0.322-1.129-0.403
		c-0.483-0.161-0.887-0.242-1.209-0.242l0.322-1.29h11.288l-0.322,1.29c-0.322,0-0.807,0.081-1.371,0.161
		c-0.564,0.081-0.968,0.162-1.209,0.323c-0.484,0.161-0.888,0.403-1.049,0.806c-0.241,0.323-0.402,0.726-0.483,1.129l-1.936,8.547
		h12.74l1.936-8.386c0-0.081,0.08-0.242,0.08-0.322s0-0.242,0-0.323c0-0.242-0.08-0.564-0.161-0.726
		c-0.081-0.242-0.322-0.403-0.564-0.564c-0.322-0.161-0.726-0.322-1.129-0.403c-0.483-0.162-0.887-0.242-1.21-0.242l0.323-1.29
		H349.325L349.325,11.157z"/>
	<path fill="#ED2224" d="M359.082,35.75h-0.162c-0.241,0.241-0.645,0.483-0.967,0.887c-0.403,0.322-0.807,0.645-1.371,0.967
		c-0.483,0.322-1.048,0.564-1.612,0.807s-1.21,0.322-1.936,0.322c-1.854,0-3.306-0.645-4.354-2.016
		c-1.048-1.29-1.612-3.145-1.612-5.402c0-1.612,0.322-3.145,0.887-4.596c0.564-1.452,1.371-2.822,2.419-4.032
		c0.968-1.129,2.178-2.016,3.468-2.742c1.37-0.726,2.741-1.048,4.192-1.048c0.887,0,1.774,0.161,2.58,0.403
		c0.807,0.242,1.452,0.484,1.936,0.807l3.467-0.887l0.242,0.323l-2.902,12.336c-0.081,0.403-0.242,0.887-0.323,1.451
		c-0.08,0.564-0.161,0.968-0.161,1.291c0,0.725,0.161,1.209,0.484,1.451c0.322,0.241,0.806,0.402,1.531,0.402
		c0.242,0,0.564,0,1.049-0.08c0.483-0.081,0.806-0.162,1.048-0.242l-0.322,1.209c-1.129,0.484-2.016,0.807-2.58,0.969
		c-0.564,0.241-1.21,0.322-2.017,0.322c-0.887,0-1.612-0.242-2.177-0.807C359.404,37.201,359.082,36.556,359.082,35.75z
		 M361.823,23.655c0-0.403-0.081-0.807-0.161-1.209c-0.081-0.403-0.242-0.726-0.564-1.048c-0.242-0.323-0.646-0.564-1.049-0.726
		c-0.483-0.162-0.967-0.323-1.693-0.323c-0.967,0-1.854,0.323-2.741,0.887c-0.887,0.645-1.693,1.451-2.338,2.5
		c-0.646,0.968-1.21,2.177-1.613,3.548c-0.402,1.371-0.645,2.741-0.645,4.193c0,0.806,0.081,1.452,0.161,2.096
		c0.081,0.564,0.242,1.129,0.483,1.613c0.242,0.483,0.564,0.887,1.049,1.129c0.483,0.241,1.048,0.402,1.773,0.402
		s1.452-0.161,2.258-0.564c0.807-0.402,1.693-1.129,2.661-2.096L361.823,23.655z"/>
	<path fill="#ED2224" d="M400.769,36.072l-0.323,1.209c-1.209,0.484-2.096,0.807-2.822,0.968c-0.726,0.161-1.29,0.241-1.773,0.241
		c-1.048,0-1.773-0.241-2.338-0.806c-0.484-0.564-0.727-1.21-0.727-1.935c0-0.242,0-0.564,0.081-0.969
		c0.081-0.322,0.161-0.725,0.242-1.209l1.854-7.096c0.161-0.564,0.241-1.048,0.322-1.451c0.081-0.484,0.161-0.806,0.161-1.048
		c0-0.887-0.161-1.532-0.564-2.016s-0.968-0.726-1.773-0.726c-0.888,0-1.693,0.161-2.5,0.564c-0.806,0.403-1.773,1.129-2.741,2.257
		l-3.387,14.191h-3.548l2.983-12.74c0.081-0.242,0.161-0.564,0.161-0.887c0.081-0.322,0.081-0.564,0.081-0.726
		c0-0.806-0.242-1.451-0.646-1.935c-0.402-0.484-1.048-0.726-1.773-0.726s-1.532,0.161-2.419,0.564
		c-0.887,0.403-1.854,1.209-3.064,2.419l-3.225,14.03h-3.387l2.902-12.417c0.081-0.483,0.161-0.887,0.322-1.451
		c0.081-0.484,0.162-0.968,0.162-1.29c0-0.726-0.081-1.209-0.403-1.452c-0.242-0.242-0.726-0.322-1.451-0.322
		c-0.242,0-0.646,0.081-1.049,0.161s-0.806,0.162-1.048,0.242l0.322-1.209c0.968-0.484,1.854-0.807,2.661-0.968
		c0.807-0.242,1.451-0.323,2.016-0.323c1.048,0,1.774,0.242,2.177,0.807c0.403,0.564,0.646,1.29,0.646,2.258h0.08
		c1.532-1.209,2.742-2.016,3.71-2.581c0.967-0.484,2.096-0.726,3.467-0.726c1.129,0,2.016,0.323,2.741,0.968s1.129,1.451,1.21,2.5
		h0.08c1.371-1.129,2.58-2.016,3.629-2.58c1.048-0.564,2.258-0.887,3.709-0.887c1.209,0,2.177,0.323,2.822,1.048
		c0.645,0.726,0.967,1.612,0.967,2.822c0,0.242,0,0.645-0.08,1.209c-0.081,0.564-0.161,1.129-0.322,1.774l-1.613,6.128
		c-0.08,0.403-0.241,0.887-0.322,1.37c-0.081,0.564-0.161,0.968-0.161,1.21c0,0.726,0.161,1.21,0.483,1.451
		c0.322,0.242,0.807,0.403,1.532,0.403c0.242,0,0.564,0,1.048-0.08C400.204,36.233,400.526,36.152,400.769,36.072z"/>
	<path fill="#ED2224" d="M434.392,36.072l-0.322,1.209c-1.21,0.484-2.097,0.807-2.822,0.968s-1.29,0.241-1.774,0.241
		c-1.048,0-1.773-0.241-2.338-0.806c-0.484-0.564-0.726-1.21-0.726-1.935c0-0.242,0-0.564,0.08-0.969
		c0.081-0.322,0.161-0.725,0.242-1.209l1.854-7.096c0.161-0.564,0.242-1.048,0.322-1.451c0.081-0.484,0.161-0.806,0.161-1.048
		c0-0.887-0.161-1.532-0.563-2.016c-0.403-0.484-0.968-0.726-1.774-0.726c-0.887,0-1.693,0.161-2.5,0.564
		c-0.806,0.403-1.773,1.129-2.741,2.257l-3.387,14.191h-3.548l2.983-12.74c0.081-0.242,0.162-0.564,0.162-0.887
		c0.08-0.322,0.08-0.564,0.08-0.726c0-0.806-0.242-1.451-0.645-1.935c-0.403-0.484-1.049-0.726-1.774-0.726
		s-1.532,0.161-2.419,0.564c-0.887,0.403-1.854,1.209-3.063,2.419l-3.226,14.03h-3.548l2.902-12.417
		c0.081-0.483,0.161-0.887,0.323-1.451c0.08-0.484,0.161-0.968,0.161-1.29c0-0.726-0.081-1.209-0.403-1.452
		c-0.242-0.242-0.726-0.322-1.451-0.322c-0.242,0-0.646,0.081-1.049,0.161c-0.402,0.081-0.806,0.162-1.048,0.242l0.322-1.209
		c0.968-0.484,1.854-0.807,2.661-0.968c0.807-0.242,1.451-0.323,2.016-0.323c1.048,0,1.774,0.242,2.177,0.807
		c0.403,0.564,0.646,1.29,0.646,2.258h0.08c1.532-1.209,2.742-2.016,3.71-2.581c0.967-0.484,2.096-0.726,3.467-0.726
		c1.129,0,2.016,0.323,2.741,0.968s1.129,1.451,1.21,2.5h0.08c1.371-1.129,2.58-2.016,3.629-2.58
		c1.048-0.564,2.258-0.887,3.709-0.887c1.209,0,2.177,0.323,2.822,1.048c0.645,0.726,0.967,1.612,0.967,2.822
		c0,0.242,0,0.645-0.08,1.209c-0.081,0.564-0.161,1.129-0.322,1.774l-1.613,6.128c-0.08,0.403-0.241,0.887-0.322,1.37
		c-0.081,0.564-0.161,0.968-0.161,1.21c0,0.726,0.161,1.21,0.483,1.451c0.322,0.242,0.807,0.403,1.532,0.403
		c0.242,0,0.564,0,1.048-0.08C433.827,36.233,434.149,36.152,434.392,36.072z"/>
</g>
</svg>
