<?xml version="1.0" encoding="utf-8"?>
<!-- Generator: Adobe Illustrator 14.0.0, SVG Export Plug-In . SVG Version: 6.00 Build 43363)  -->
<!DOCTYPE svg PUBLIC "-//W3C//DTD SVG 1.1//EN" "http://www.w3.org/Graphics/SVG/1.1/DTD/svg11.dtd">
<svg version="1.1" id="Layer_1" xmlns="http://www.w3.org/2000/svg" xmlns:xlink="http://www.w3.org/1999/xlink" x="0px" y="0px"
	 width="283px" height="243px" viewBox="179.5 117.5 283 243" style="enable-background:new 179.5 117.5 283 243;"
	 xml:space="preserve">
<style type="text/css">
<![CDATA[
	.st0{fill:#FF0000;}
]]>
</style>
<g>
	<path class="st0" d="M184.5,328c0.8,0.5,1.5,1,2.2,1.4c30.1,17.8,62.6,25,97.4,22.4c18.4-1.4,36.3-5.3,52.9-13.5
		c60.2-29.6,89.6-79.2,92.8-145.2c0.3-6.1,1.6-10.3,6.7-14.1c7-5.2,13.2-11.6,18-19c0.8-1.1,1.3-2.4,2-3.5c-9.4,3.5-18.8,6-28.5,7.3
		c4.6-4.6,9.2-8.8,13.3-13.5c4.1-4.7,6.9-10.2,8.6-16.7c-2.3,1.1-4.1,2.1-6,2.9c-8.1,3.3-16.2,6.6-24.4,9.7
		c-3.4,1.3-6.4,0.1-8.8-2.8c-1.3-1.7-2.9-3.2-4.6-4.5c-14.4-10-30.1-12.6-47-8.1c-24.4,6.6-45.1,30-42.4,59.5
		c0.2,2.5,0.5,4.9,0.8,7.5c-47.1-2.6-84.9-23.3-115.7-58.4c-5.3,10.1-8.4,20.3-7.5,31.3c1.5,17.6,9.8,31.6,23.4,43.6
		c-8.7-0.6-16.1-3.2-23.5-6.6c0.9,29.3,16.1,47,43.9,55.7c-8.4,2.5-16.1,2.1-24,1.3c8.5,24.4,26.2,36.3,51.6,39.1
		C241.2,323.1,213.9,328.9,184.5,328z"/>
	<path class="st0" d="M184.5,328c29.5,0.9,56.8-4.9,81.1-24.2c-25.4-2.8-43.1-14.8-51.6-39.1c8,0.8,15.6,1.2,24-1.3
		c-27.7-8.7-43.1-26.4-43.9-55.7c7.4,3.4,14.8,6,23.5,6.6c-13.6-12-21.9-26.1-23.4-43.6c-0.9-11,2.1-21.2,7.5-31.3
		c30.7,35,68.5,55.7,115.7,58.4c-0.3-2.6-0.5-5-0.8-7.5c-2.7-29.5,18-52.9,42.4-59.5c16.9-4.5,32.6-1.9,47,8.1
		c1.7,1.2,3.3,2.8,4.6,4.5c2.4,3,5.4,4.1,8.8,2.8c8.2-3.1,16.2-6.4,24.4-9.7c1.9-0.8,3.7-1.8,6-2.9c-1.7,6.5-4.5,12-8.6,16.7
		c-4.1,4.7-8.7,8.9-13.3,13.5c9.7-1.3,19.1-3.8,28.5-7.3c-0.6,1.2-1.3,2.4-2,3.5c-4.8,7.5-11,13.8-18,19c-5.1,3.8-6.4,7.9-6.7,14.1
		c-3.2,66-32.6,115.6-92.8,145.2c-16.6,8.2-34.5,12.1-52.9,13.5c-34.8,2.6-67.4-4.6-97.4-22.4C185.9,328.9,185.2,328.5,184.5,328z"
		/>
</g>
</svg>
