<?xml version="1.0" encoding="utf-8"?>
<!-- Generator: Adobe Illustrator 14.0.0, SVG Export Plug-In . SVG Version: 6.00 Build 43363)  -->
<!DOCTYPE svg PUBLIC "-//W3C//DTD SVG 1.1//EN" "http://www.w3.org/Graphics/SVG/1.1/DTD/svg11.dtd">
<svg version="1.1" id="Layer_1" xmlns="http://www.w3.org/2000/svg" xmlns:xlink="http://www.w3.org/1999/xlink" x="0px" y="0px"
	 width="264px" height="245px" viewBox="188.5 117.5 264 245" style="enable-background:new 188.5 117.5 264 245;"
	 xml:space="preserve">
<style type="text/css">
<![CDATA[
	.st0{fill:#FF0000;}
	.st1{fill:#FFFFFF;}
]]>
</style>
<g>
	<path class="st1" d="M208.1,206.5c4-3.1,7.5-5.8,11.1-8.4c7-5.1,12.7-4.5,17.8,2.6c2.9,4,5.4,8.5,7.1,13.2
		c3.8,10.7,7.1,21.6,10.3,32.5c5.7,20.1,10.9,40.4,16.8,60.5c3.1,10.7,7.6,20.8,14.7,29.7c4.6,5.8,10.4,9.8,17.8,11
		c5.5,0.9,10.9,0.5,16.2-0.9c11.6-3.1,21.3-9.7,30.3-17.3c14.2-11.8,26.1-25.9,37.7-40c18.5-22.4,34.6-46.3,47.1-72.6
		c8.2-17.3,11.2-35.2,7.3-54.1c-3-14.2-10.8-24.6-25.5-27.6c-18.8-3.8-36.3-0.4-51.7,11.6c-10.4,8.2-16.9,19.4-22,31.3
		c-1.8,4.2-3.4,8.5-5.3,13.4c1.5-0.5,2.4-0.9,3.3-1c5-0.9,10-2.3,15-2.4c9.6-0.1,15.4,5.4,16.7,14.8c0.9,6.7-0.6,13.1-3.2,19.1
		c-6.3,15-15.1,28.6-25.2,41.4c-1.5,1.9-3.3,3.5-5.3,4.9c-5.3,3.9-9.7,3.4-13.2-2.1c-2.7-4.2-4.9-8.9-6.6-13.7
		c-4.9-14-7.3-28.5-9.7-43.1c-2.2-13-4.1-26-6.5-38.9c-1.7-8.7-4.5-17.2-10.2-24.3c-6.5-8.1-15.1-10.9-25.2-8.9
		c-8.5,1.7-15.6,6.5-22.5,11.5c-17.3,12.7-32.5,27.8-48.2,42.3c-0.2,0.2-0.3,0.4-0.5,0.8C200.2,196.5,204,201.3,208.1,206.5z"/>
	<path class="st0" d="M208.1,206.5c-4.1-5.2-7.8-9.9-11.6-14.7c0.2-0.4,0.3-0.6,0.5-0.8c15.7-14.5,30.9-29.6,48.2-42.3
		c6.9-5.1,14-9.8,22.5-11.5c10.1-2,18.7,0.8,25.2,8.9c5.7,7.1,8.5,15.5,10.2,24.3c2.5,12.9,4.4,25.9,6.5,38.9
		c2.5,14.6,4.8,29.1,9.7,43.1c1.7,4.8,3.9,9.5,6.6,13.7c3.5,5.5,8,6,13.2,2.1c1.9-1.5,3.8-3.1,5.3-4.9
		c10.1-12.8,18.8-26.4,25.2-41.4c2.6-6.1,4.1-12.5,3.2-19.1c-1.3-9.4-7.1-14.9-16.7-14.8c-5,0.1-10,1.5-15,2.4
		c-0.9,0.2-1.8,0.5-3.3,1c1.9-4.8,3.4-9.1,5.3-13.4c5.2-11.9,11.6-23.1,22-31.3c15.3-12,32.9-15.4,51.7-11.6
		c14.8,3,22.5,13.4,25.5,27.6c3.9,18.8,1,36.8-7.3,54.1c-12.5,26.2-28.6,50.2-47.1,72.5c-11.7,14.1-23.5,28.2-37.7,40
		c-9.1,7.5-18.8,14.1-30.3,17.3c-5.3,1.5-10.8,1.9-16.2,0.9c-7.5-1.2-13.2-5.2-17.8-11c-7-8.8-11.6-19-14.7-29.7
		c-5.9-20.1-11-40.4-16.8-60.5c-3.1-10.9-6.5-21.8-10.3-32.5c-1.7-4.7-4.2-9.1-7.1-13.2c-5.1-7.1-10.8-7.7-17.8-2.6
		C215.6,200.7,212.1,203.5,208.1,206.5z"/>
</g>
</svg>
