<?xml version="1.0" encoding="utf-8"?>
<!-- Generator: Adobe Illustrator 14.0.0, SVG Export Plug-In . SVG Version: 6.00 Build 43363)  -->
<!DOCTYPE svg PUBLIC "-//W3C//DTD SVG 1.1//EN" "http://www.w3.org/Graphics/SVG/1.1/DTD/svg11.dtd">
<svg version="1.1" id="Layer_1" xmlns="http://www.w3.org/2000/svg" xmlns:xlink="http://www.w3.org/1999/xlink" x="0px" y="0px"
	 width="335.5px" height="149.5px" viewBox="0 0 335.5 149.5" enable-background="new 0 0 335.5 149.5" xml:space="preserve">
<g>
	<path fill="#ED2224" d="M229.159,7.825c22.979,0.645,42.815,1.209,62.731,1.854c4.516,0.161,9.111,0.484,13.465,1.532
		c11.45,2.661,16.853,11.127,18.465,21.932c1.532,10.401,2.5,20.964,2.5,31.446c0,15.562-0.807,31.123-1.854,46.686
		c-0.322,4.596-1.936,9.273-3.79,13.547c-4.354,9.756-12.981,13.223-22.899,13.465c-27.173,0.807-54.265,1.532-81.438,1.693
		c-15.643,0.08-31.366-0.887-47.009-1.612c-3.87-0.162-7.74-0.888-11.53-1.854c-7.418-1.855-12.498-6.531-15.24-13.789
		c-3.467-9.03-4.112-18.545-4.273-27.979c-0.242-16.691,0.081-33.462,0.645-50.153c0.162-5.725,1.452-11.53,3.064-17.013
		c3.226-10.805,11.289-16.852,22.577-17.336C187.15,9.357,209.646,8.551,229.159,7.825z M245.931,110.227
		c2.338,1.693,4.192,3.387,6.37,4.597c6.934,3.628,13.868,0.241,15.4-7.418c0.483-2.499,0.726-4.999,0.726-7.499
		c0.08-10.643,0.08-21.287,0-31.93c0-2.822-0.403-5.725-1.048-8.386c-2.178-8.95-9.918-11.611-17.417-6.128
		c-1.371,1.048-2.661,2.258-4.435,3.709c0-9.273,0-17.981,0-26.689c-3.951,0-7.58,0-11.289,0c0,28.302,0,56.361,0,84.582
		c3.951,0,7.66,0,11.45,0C245.85,113.372,245.931,111.92,245.931,110.227z M224.644,115.064c0-21.205,0-42.17,0-63.134
		c-4.031,0-7.901,0-12.095,0c0,1.29,0,2.419,0,3.548c0,13.626-0.08,27.173,0.08,40.799c0.082,3.064-0.967,5.402-3.225,7.096
		c-1.209,0.969-3.225,1.936-4.354,1.533c-0.969-0.323-1.693-2.662-1.693-4.113c-0.081-15.078-0.081-30.156-0.081-45.153
		c0-1.209,0-2.419,0-3.548c-4.354,0-8.225,0-12.175,0c-0.081,0.726-0.162,1.209-0.162,1.774c0,17.094,0,34.107,0,51.201
		c0,1.532,0.242,3.145,0.646,4.678c1.37,5.32,5.483,7.82,10.804,6.208c2.339-0.726,4.436-2.339,6.531-3.628
		c1.129-0.727,2.098-1.855,3.549-3.145c0,2.418,0,4.192,0,6.047C216.742,115.064,220.612,115.064,224.644,115.064z M310.839,85.474
		c0-6.37,0.322-12.257-0.081-18.143c-0.726-9.837-7.176-16.207-16.206-16.69c-9.354-0.484-17.095,4.999-17.9,14.917
		c-0.968,12.014-1.129,24.271,0.08,36.203c1.049,10.966,11.127,16.53,22.013,13.868c9.111-2.257,14.595-12.82,11.611-22.496
		c-3.871,0-7.741,0-11.611,0c-0.161,2.742-0.081,5.322-0.403,7.822c-0.322,2.58-1.935,4.273-4.596,4.354
		c-2.661,0.081-4.677-1.371-4.919-3.951c-0.483-5.16-0.645-10.4-0.968-15.884C295.922,85.474,303.26,85.474,310.839,85.474z
		 M193.036,42.497c0-4.354,0-8.224,0-12.014c-13.385,0-26.447,0-39.671,0c0,4.032,0,7.902,0,12.095c4.435,0,8.628,0,13.224,0
		c0,24.351,0,48.38,0,72.407c4.435,0,8.547,0,12.981,0c0-24.27,0-48.218,0-72.488C184.086,42.497,188.521,42.497,193.036,42.497z"/>
	<path fill="#ED2224" d="M106.438,51.527c0,6.209,0,12.337,0,18.465c0,10.401-0.081,20.883,0.081,31.285
		c0,1.371,0.726,3.467,1.693,3.87c1.048,0.403,2.983-0.403,4.112-1.29c2.419-1.773,3.709-4.112,3.709-7.499
		c-0.161-14.836-0.081-29.672-0.081-44.831c3.951,0,7.741,0,11.772,0c0,21.045,0,42.09,0,63.457c-3.79,0-7.66,0-11.692,0
		c0-1.936,0-3.789,0-6.289c-1.128,1.049-1.854,1.773-2.58,2.419c-1.935,1.451-3.79,3.145-5.886,4.112
		c-5.886,2.741-11.046,0.08-12.417-6.209c-0.242-1.209-0.564-2.5-0.564-3.709c0-17.819,0-35.559,0-53.62
		C98.375,51.527,102.164,51.527,106.438,51.527z"/>
	<path fill="#ED2224" d="M9.68,29.757c4.112,0,7.902-0.161,11.692,0.081c0.806,0.081,1.935,1.291,2.257,2.177
		c2.581,9.111,5,18.223,7.418,27.415c0.161,0.564,0.403,1.129,1.209,1.693c1.532-5.725,3.064-11.45,4.596-17.094
		c1.048-4.032,2.016-8.144,3.306-12.175c0.242-0.887,1.532-1.936,2.419-2.016c3.628-0.242,7.337-0.081,11.53-0.081
		c-0.403,1.29-0.645,2.338-0.968,3.387c-4.676,15.078-9.434,30.076-14.11,45.153c-0.484,1.613-0.726,3.307-0.726,4.919
		c-0.081,10.481,0,21.045,0,31.769c-4.273,0-8.305,0-12.659,0c0-4.676-0.323-9.354,0.081-13.869
		c1.29-14.594-1.774-28.382-6.612-41.928C15.566,49.592,12.824,39.836,9.68,29.757z"/>
	<path fill="#ED2224" d="M85.877,83.941c-0.242,6.209-0.162,12.417-0.968,18.545c-1.129,8.467-8.063,13.869-16.529,13.788
		c-8.305-0.081-14.998-5.563-16.288-13.868c-0.564-3.629-0.646-7.338-0.564-10.967c0.081-8.788-0.242-17.738,0.645-26.446
		c0.967-9.354,7.176-14.272,16.207-14.272c9.272,0,15.078,4.999,16.69,14.272c0.161,0.967,0.403,1.854,0.403,2.822
		c0.081,5.402,0,10.724,0,16.126C85.635,83.941,85.715,83.941,85.877,83.941z M63.461,83.216c0,5.079-0.081,10.079,0,15.159
		c0,1.37,0,2.982,0.726,3.95c1.048,1.371,2.822,3.063,4.193,2.983c1.532-0.08,3.386-1.612,4.515-3.064
		c0.806-0.967,0.726-2.821,0.726-4.273c0.081-8.627,0.081-17.254,0-25.883c0-2.257-0.081-4.595-0.484-6.853
		c-0.403-2.338-2.177-3.548-4.515-3.548c-2.419,0-4.032,1.209-4.596,3.548c-0.242,1.129-0.484,2.258-0.484,3.387
		C63.461,73.54,63.461,78.378,63.461,83.216z"/>
	<path fill="#ED2224" d="M245.77,83.538c0-5.563,0-11.127,0-16.69c0-2.822,2.338-5,5.563-5.161c2.822-0.081,4.192,1.452,4.515,4.193
		c0.162,1.774,0.403,3.548,0.403,5.322c0,8.87-0.08,17.658-0.161,26.528c0,1.37-0.242,2.741-0.483,4.031
		c-0.564,2.339-2.016,3.629-4.516,3.468c-2.902-0.162-5.321-2.258-5.321-4.677C245.688,94.907,245.77,89.264,245.77,83.538z"/>
	<path fill="#ED2224" d="M298.905,75.637c-3.87,0-7.096,0-10.885,0c0.241-3.709,0.322-7.338,0.887-10.886
		c0.403-2.58,2.58-3.145,4.838-3.064c2.177,0.081,4.031,0.887,4.354,3.225C298.422,68.379,298.583,71.847,298.905,75.637z"/>
</g>
</svg>
